<svg width="20" height="20" class="svg-icon" style="vertical-align: middle;fill: currentColor;overflow: hidden;" viewBox="0 0 1024 1024" version="1.1" xmlns="http://www.w3.org/2000/svg"><path d="M57.677643 159.644617c0 11.801733 4.702946 23.159792 13.044021 31.500867 8.341075 8.341075 19.699133 13.044021 31.500866 13.04402h819.55494c11.801733 0 23.159792-4.702946 31.500866-13.04402 8.341075-8.341075 13.044021-19.699133 13.044021-31.500867s-4.702946-23.159792-13.044021-31.500867c-8.341075-8.341075-19.699133-13.044021-31.500866-13.04402H102.22253c-11.801733 0-23.159792 4.702946-31.500866 13.04402-8.341075 8.341075-13.044021 19.699133-13.044021 31.500867z m0 730.553899c0 11.801733 4.702946 23.159792 13.044021 31.500867 8.341075 8.341075 19.699133 13.044021 31.500866 13.044021h808.019411c11.801733 0 23.159792-4.702946 31.500867-13.044021 8.341075-8.341075 13.044021-19.699133 13.04402-31.500867s-4.702946-23.159792-13.04402-31.500866c-8.341075-8.341075-19.699133-13.044021-31.500867-13.044021H102.22253c-11.801733 0-23.159792 4.702946-31.500866 13.044021-8.341075 8.341075-13.044021 19.699133-13.044021 31.500866z" fill="#51A6DF" /><path d="M751.140381 780.788464l-105.683189-141.975736 35.582669-26.531716 47.916811 64.421491v-370.467938h44.367418v370.467938l48.005546-64.421491 35.582669 26.531716-105.771924 141.975736z m-478.280762 0l-105.683189-141.975736 35.582669-26.531716 47.916811 64.421491v-370.467938h44.367418v370.467938l48.005545-64.421491 35.582669 26.531716-105.771923 141.975736z m239.140381 0l-105.683189-141.975736 35.582669-26.531716 48.005546 64.421491v-370.467938h44.367418v370.467938l48.005546-64.421491 35.582669 26.531716-105.860659 141.975736z" fill="#2381BF" /></svg>