<svg width="20" height="20" viewBox="0 0 512 512" fill="none" xmlns="http://www.w3.org/2000/svg">
<path d="M256 104C240.178 104 224.71 108.692 211.554 117.482C198.398 126.273 188.145 138.767 182.09 153.385C176.035 168.003 174.45 184.089 177.537 199.607C180.624 215.126 188.243 229.38 199.432 240.569C210.62 251.757 224.874 259.376 240.393 262.463C255.911 265.55 271.997 263.965 286.615 257.91C301.233 251.855 313.727 241.602 322.518 228.446C331.308 215.29 336 199.823 336 184C335.976 162.79 327.54 142.456 312.542 127.458C297.544 112.46 277.21 104.024 256 104V104ZM256 248C243.342 248 230.968 244.246 220.444 237.214C209.919 230.182 201.716 220.186 196.872 208.492C192.028 196.797 190.76 183.929 193.23 171.514C195.699 159.099 201.795 147.696 210.745 138.745C219.696 129.795 231.099 123.699 243.514 121.23C255.929 118.76 268.797 120.028 280.492 124.872C292.186 129.716 302.182 137.919 309.214 148.444C316.247 158.968 320 171.342 320 184C319.981 200.968 313.232 217.236 301.234 229.234C289.236 241.232 272.968 247.981 256 248V248Z" fill="#3ddfff" id="id_101"></path>
<path d="M256 136C246.507 136 237.226 138.815 229.333 144.089C221.439 149.364 215.287 156.86 211.654 165.631C208.021 174.402 207.07 184.053 208.922 193.364C210.774 202.675 215.346 211.228 222.059 217.941C228.772 224.654 237.325 229.226 246.636 231.078C255.947 232.93 265.598 231.979 274.369 228.346C283.14 224.713 290.636 218.561 295.911 210.667C301.185 202.774 304 193.494 304 184C303.986 171.274 298.924 159.073 289.925 150.075C280.927 141.076 268.726 136.014 256 136V136ZM256 216C249.671 216 243.484 214.123 238.222 210.607C232.959 207.091 228.858 202.093 226.436 196.246C224.014 190.399 223.38 183.965 224.615 177.757C225.85 171.55 228.897 165.848 233.373 161.373C237.848 156.897 243.55 153.85 249.757 152.615C255.965 151.38 262.399 152.014 268.246 154.436C274.093 156.858 279.091 160.959 282.607 166.222C286.123 171.484 288 177.671 288 184C287.99 192.484 284.616 200.618 278.617 206.617C272.618 212.616 264.484 215.99 256 216Z" fill="#45e0ff" id="id_102"></path>
<path d="M501.77 178.46C500.65 177.29 473.76 149.46 430.04 121.28C389.51 95.15 326.42 64 256 64C185.58 64 122.49 95.15 81.9601 121.28C38.2401 149.46 11.3501 177.29 10.2301 178.46C8.80004 179.95 8.00146 181.935 8.00146 184C8.00146 186.065 8.80004 188.05 10.2301 189.54C11.3501 190.71 38.2401 218.54 81.9601 246.72C122.49 272.85 185.58 304 256 304C326.42 304 389.51 272.85 430.04 246.72C473.76 218.54 500.65 190.71 501.77 189.54C503.2 188.05 503.999 186.065 503.999 184C503.999 181.935 503.2 179.95 501.77 178.46V178.46ZM421.03 233.5C382.38 258.36 322.38 288 256 288C189.62 288 129.62 258.36 90.9701 233.5C68.3444 218.949 47.0811 202.382 27.4401 184C47.0806 165.618 68.3439 149.05 90.9701 134.5C129.62 109.64 189.62 80 256 80C322.38 80 382.38 109.64 421.03 134.5C443.656 149.05 464.92 165.618 484.56 184C464.92 202.382 443.656 218.95 421.03 233.5V233.5Z" fill="#41ddfc" id="id_103"></path>
<path d="M198.146 314.879C197.395 313.978 196.456 313.253 195.394 312.755C194.331 312.258 193.173 312 192 312C190.827 312 189.669 312.258 188.607 312.755C187.545 313.253 186.605 313.978 185.854 314.879L145.854 362.879C144.881 364.047 144.26 365.468 144.065 366.976C143.871 368.485 144.11 370.017 144.755 371.394C145.4 372.771 146.424 373.936 147.707 374.752C148.99 375.568 150.48 376.001 152 376.001H168V440.001C168 442.123 168.843 444.157 170.343 445.658C171.844 447.158 173.878 448.001 176 448.001H208C210.122 448.001 212.157 447.158 213.657 445.658C215.157 444.157 216 442.123 216 440.001V376.001H232C233.521 376.001 235.01 375.568 236.293 374.752C237.576 373.936 238.601 372.771 239.246 371.394C239.891 370.017 240.13 368.485 239.935 366.976C239.74 365.468 239.12 364.047 238.146 362.879L198.146 314.879ZM208 360.001C205.878 360.001 203.844 360.844 202.343 362.344C200.843 363.844 200 365.879 200 368.001V432.001H184V368.001C184 365.879 183.157 363.844 181.657 362.344C180.157 360.844 178.122 360.001 176 360.001H169.08L192 332.501L214.92 360.001H208Z" fill="black" id="id_104"></path>
<path d="M360 384H344V320C344 317.878 343.157 315.843 341.657 314.343C340.157 312.843 338.122 312 336 312H304C301.878 312 299.844 312.843 298.343 314.343C296.843 315.843 296 317.878 296 320V384H280C278.48 384 276.99 384.433 275.707 385.249C274.424 386.065 273.4 387.23 272.755 388.607C272.11 389.984 271.871 391.516 272.065 393.024C272.26 394.532 272.881 395.954 273.854 397.122L313.854 445.122C314.605 446.023 315.545 446.748 316.607 447.245C317.669 447.743 318.827 448.001 320 448.001C321.173 448.001 322.331 447.743 323.394 447.245C324.456 446.748 325.395 446.023 326.146 445.122L366.146 397.122C367.12 395.954 367.74 394.532 367.935 393.024C368.13 391.516 367.891 389.984 367.246 388.607C366.601 387.23 365.576 386.065 364.293 385.249C363.01 384.433 361.521 384 360 384ZM320 427.5L297.08 400H304C306.122 400 308.157 399.157 309.657 397.657C311.157 396.157 312 394.122 312 392V328H328V392C328 394.122 328.843 396.157 330.343 397.657C331.844 399.157 333.878 400 336 400H342.92L320 427.5Z" fill="black" id="id_105"></path>
</svg>